{"title":"Karate.Kid.CAM.XVID.FEEL-FREE","uid":5629976,"size":1350914032,"categoryP":"video","categoryS":"movies","magnet":"?xt=urn:btih:e2fe9135fe59e04de3851762c392d92eec2f8e2b&amp;dn=Karate.Kid.CAM.XVID.FEEL-FREE&amp;tr=udp%3A%2F%2Ftracker.openbittorrent.com%3A80&amp;tr=udp%3A%2F%2Fopen.demonii.com%3A1337&amp;tr=udp%3A%2F%2Ftracker.coppersurfer.tk%3A6969&amp;tr=udp%3A%2F%2Fexodus.desync.com%3A6969","seeders":0,"leechers":0,"uploader":".BONE.","files":7,"time":1276633399,"description":"Genre:Action | Drama | Family | Sport\nLanguage:English\nhttp://www.imdb.com/title/tt1155076/\nSource Video:DVDR.VOBS.Thanks.BB\nSource Audio:DVDR.VOBS.Thanks.BB\nEncoder: Tony2\n.........................................\nGeneral\nComplete name : Karate.Kids.CAM.XVID.FEEL-FREE.avi\nFormat : AVI\nFormat/Info : Audio Video Interleave\nFormat profile : OpenDML\nFile size : 1.26 GiB\n..........................................\nVideo\nFormat : xvid\nCodec ID : xvid\nDuration : 5h 20mn\nBit rate : 502 Kbps\nWidth : 704 pixels\nHeight : 304 pixels\nDisplay aspect ratio : 2.35:1\nFrame rate : 29.970 fps\nResolution : 24 bits\nBits/(Pixel*Frame) : 0.078\nStream size : 1.12 GiB (89%)\n.............................................\nAudio\nID : 1\nFormat : MPEG Audio\nFormat version : Version 1\nFormat profile : Layer 3\nFormat settings, Mode : Joint stereo / MS Stereo\nCodec ID : 55\nCodec ID/Hint : MP3\nDuration : 2h 13mn\nBit rate mode : Constant\nBit rate : 128 Kbps\nChannel(s) : 2 channels\nSampling rate : 48.0 KHz\nResolution : 16 bits\nStream size : 123 MiB (10%)\nAlignment : Aligned on interleaves\nInterleave, duration : 24 ms (0.72 video frame)\n............................................\nPlot:\nWork causes a single mother to move to China with her young son; in his new home, the boy embraces kung fu, taught to him by a master.\n\nscreens &lt;a href=&quot;\nhttp://www.starshare.ro/bitbucket/Karate.Kids.CAM.XVID.FEEL-FREE.avi_thumbs_%5B2010.06.15_19.09.04%5D.jpg&quot; rel=&quot;nofollow&quot; target=&quot;_NEW&quot;&gt;\nhttp://www.starshare.ro/bitbucket/Karate.Kids.CAM.XVID.FEEL-FREE.avi_thumbs_%5B2010.06.15_19.09.04%5D.jpg&lt;/a&gt;","torrent":{"xt":"urn:btih:e2fe9135fe59e04de3851762c392d92eec2f8e2b","amp;dn":"Karate.Kid.CAM.XVID.FEEL-FREE","amp;tr":["udp%3A%2F%2Ftracker.openbittorrent.com%3A80","udp%3A%2F%2Fopen.demonii.com%3A1337","udp%3A%2F%2Ftracker.coppersurfer.tk%3A6969","udp%3A%2F%2Fexodus.desync.com%3A6969"],"infoHash":"e2fe9135fe59e04de3851762c392d92eec2f8e2b","infoHashBuffer":{"type":"Buffer","data":[226,254,145,53,254,89,224,77,227,133,23,98,195,146,217,46,236,47,142,43]},"announce":[],"urlList":[]}}